<svg xmlns="http://www.w3.org/2000/svg" viewBox="0 0 60 60" fill="none">
  <rect width="60" height="60" rx="12" fill="#6366F1"/>
  <circle cx="30" cy="30" r="18" stroke="white" stroke-width="2.5" fill="none"/>
  <path d="M22 30 C22 25 27 21 30 21 C33 21 38 25 38 30 C38 35 33 39 30 39 C27 39 22 35 22 30Z" fill="white" opacity="0.15"/>
  <path d="M30 14 L30 22 M30 38 L30 46 M14 30 L22 30 M38 30 L46 30" stroke="white" stroke-width="2.5" stroke-linecap="round"/>
  <circle cx="30" cy="30" r="5" fill="white"/>
  <path d="M21 21 L26 26 M34 34 L39 39 M21 39 L26 34 M34 26 L39 21" stroke="white" stroke-width="2" stroke-linecap="round" opacity="0.6"/>
</svg>
